<?xml version="1.0" encoding="UTF-8" standalone="no"?>
<!DOCTYPE svg PUBLIC "-//W3C//DTD SVG 1.1//EN" "http://www.w3.org/Graphics/SVG/1.1/DTD/svg11.dtd">
<svg width="100%" height="100%" viewBox="0 0 28 28" version="1.1" xmlns="http://www.w3.org/2000/svg" xmlns:xlink="http://www.w3.org/1999/xlink" xml:space="preserve" xmlns:serif="http://www.serif.com/" style="fill-rule:evenodd;clip-rule:evenodd;stroke-linejoin:round;stroke-miterlimit:2;">
    <g id="Layer1">
        <rect x="-0.194" y="-0.045" width="27.894" height="27.818" style="fill:rgb(99,188,80);"/>
    </g>
    <g id="Layer_1-2" transform="matrix(0.935582,0,0,0.935582,0.9,1.77157)">
        <path id="polygon64" d="M11.87,9.38L11.27,9.14L11.87,9.39L11.87,9.38Z" style="fill:white;fill-rule:nonzero;"/>
        <path id="polygon66" d="M17.36,7.92L17.34,7.91L15.03,8.92L15.03,8.93L17.36,7.92Z" style="fill:rgb(163,207,98);fill-rule:nonzero;"/>
        <path id="polygon68" d="M12.94,5.78L12.95,5.78L12.94,5.77L12.94,5.78Z" style="fill:rgb(163,207,98);fill-rule:nonzero;"/>
        <path id="polygon70" d="M12.94,9.82L12.94,9.83L12.95,9.83L12.95,9.8L11.87,9.38L11.87,9.39L12.94,9.82Z" style="fill:rgb(163,207,98);fill-rule:nonzero;"/>
        <path id="polygon72" d="M15.03,8.93L14.16,9.31L12.98,9.82L12.95,9.84L12.95,9.83L12.94,9.83L12.941,27.495L15.03,27.494L15.03,10.63L21.65,13.25L23.61,12.48L23.44,10.87L17.36,7.92L15.03,8.93Z" style="fill:rgb(216,230,150);fill-rule:nonzero;"/>
        <path id="polygon74" d="M12.93,5.77L12.94,5.78L12.94,5.77L2.97,0.93L0,1.95L1.56,5.3L8.29,7.96L11.25,9.13L11.27,9.14L11.87,9.38L12.95,9.8L12.94,6.84L12.93,5.78L12.93,5.77Z" style="fill:rgb(216,230,150);fill-rule:nonzero;"/>
        <path id="polygon76" d="M14.16,9.3L15.03,8.93L15.03,8.92L14.16,9.3Z" style="fill:rgb(163,207,98);fill-rule:nonzero;"/>
        <path id="polygon78" d="M12.94,5.77L12.93,5.77L12.93,5.78L12.94,5.77Z" style="fill:white;fill-rule:nonzero;"/>
        <path id="polygon80" d="M12.98,9.82L12.95,9.83L12.95,9.84L12.98,9.82Z" style="fill:white;fill-rule:nonzero;"/>
        <path id="polygon82" d="M12.98,9.82L12.95,9.8L12.95,9.83L12.98,9.82Z" style="fill:white;fill-rule:nonzero;"/>
        <path id="polygon84" d="M12.98,9.82L14.16,9.3L12.98,9.82Z" style="fill:white;fill-rule:nonzero;"/>
        <path id="polygon86" d="M12.95,5.78L12.94,5.77L12.93,5.78L12.94,6.84L12.95,9.8L12.98,9.82L14.16,9.3L15.03,8.92L17.34,7.91L17.36,7.92L26.41,3.99L27.43,1.44L25.22,0L12.94,5.77L12.95,5.78Z" style="fill:white;fill-rule:nonzero;"/>
        <path id="polygon90" d="M11.25,9.13L8.28,7.96L3.91,10.02L3.23,12.06L5.26,13.16L11.25,10.56L11.31,27.501L12.94,27.498L12.94,9.82L11.87,9.39L11.27,9.14L11.25,9.13Z" style="fill:white;fill-rule:nonzero;"/>
    </g>
</svg>
