<svg xmlns="http://www.w3.org/2000/svg" xmlns:xlink="http://www.w3.org/1999/xlink" viewBox="0 0 1425.82 353.74">
  <defs>
    <linearGradient id="a">
      <stop offset="0" stop-color="#2294fe"/>
      <stop offset="1" stop-color="#014f96"/>
    </linearGradient>
    <linearGradient id="b" x1="-467.57" x2="-469.87" y1="-68.97" y2="488.43" gradientUnits="userSpaceOnUse" xlink:href="#a"/>
  </defs>
  <g fill="#666" font-family="Bitstream Vera Sans" font-size="227.36" font-weight="400">
    <path d="M495.5 179.51v19.1a77.16 77.16 0 00-17.44-7.1 64.33 64.33 0 00-17.54-2.45c-13.25 0-23.53 4.22-30.86 12.66-7.33 8.36-11 20.13-11 35.3 0 15.17 3.67 26.98 11 35.42 7.33 8.36 17.61 12.54 30.86 12.54 5.92 0 11.77-.78 17.54-2.33a81.25 81.25 0 0017.43-7.22v18.88a83.7 83.7 0 01-17.76 6 90.48 90.48 0 01-19.43 1.99c-18.72 0-33.6-5.88-44.63-17.65-11.02-11.77-16.54-27.65-16.54-47.63 0-20.28 5.55-36.23 16.65-47.85 11.18-11.62 26.46-17.43 45.85-17.43 6.3 0 12.44.67 18.43 2 6 1.26 11.8 3.18 17.43 5.77M578.98 189.06c-10.96 0-19.61 4.3-25.98 12.88-6.36 8.51-9.55 20.2-9.55 35.08 0 14.88 3.15 26.6 9.44 35.2 6.36 8.5 15.06 12.76 26.09 12.76 10.88 0 19.5-4.3 25.87-12.88 6.36-8.58 9.54-20.28 9.54-35.08 0-14.73-3.18-26.38-9.54-34.97-6.37-8.66-15-12.99-25.87-12.99m0-17.32c17.76 0 31.71 5.78 41.85 17.32 10.14 11.55 15.21 27.53 15.21 47.96 0 20.35-5.07 36.34-15.2 47.96-10.15 11.55-24.1 17.32-41.86 17.32-17.84 0-31.83-5.77-41.97-17.32-10.06-11.62-15.1-27.6-15.1-47.96 0-20.43 5.04-36.41 15.1-47.96 10.14-11.54 24.13-17.32 41.97-17.32M766.6 198.6c5.1-9.17 11.21-15.94 18.32-20.3 7.1-4.37 15.46-6.56 25.09-6.56 12.95 0 22.94 4.55 29.97 13.66 7.03 9.03 10.55 21.9 10.55 38.63v75.05h-20.54V224.7c0-11.92-2.11-20.76-6.33-26.54-4.22-5.77-10.66-8.65-19.32-8.65-10.58 0-18.94 3.51-25.09 10.54-6.14 7.03-9.21 16.62-9.21 28.76v70.27H749.5V224.7c0-12-2.1-20.84-6.33-26.54-4.22-5.77-10.73-8.65-19.54-8.65-10.43 0-18.72 3.55-24.86 10.65-6.15 7.03-9.22 16.58-9.22 28.65v70.27h-20.54V174.74h20.54v19.32c4.66-7.63 10.25-13.25 16.77-16.88 6.5-3.62 14.24-5.44 23.2-5.44 9.03 0 16.69 2.3 22.98 6.89 6.36 4.58 11.06 11.25 14.1 19.98M910.7 280.43v65.94h-20.54V174.74h20.54v18.87c4.3-7.4 9.7-12.88 16.2-16.43 6.6-3.62 14.44-5.44 23.54-5.44 15.1 0 27.35 6 36.75 17.99 9.47 11.99 14.21 27.75 14.21 47.3 0 19.53-4.74 35.3-14.2 47.28-9.4 12-21.66 17.99-36.76 17.99-9.1 0-16.95-1.78-23.53-5.33-6.52-3.63-11.92-9.14-16.21-16.54m69.5-43.4c0-15.03-3.11-26.8-9.33-35.31-6.14-8.59-14.62-12.88-25.42-12.88-10.8 0-19.32 4.3-25.54 12.88-6.14 8.5-9.21 20.28-9.21 35.3 0 15.03 3.07 26.83 9.21 35.42 6.22 8.5 14.73 12.76 25.54 12.76 10.8 0 19.28-4.25 25.42-12.76 6.22-8.59 9.33-20.4 9.33-35.42M1091.77 236.58c-16.5 0-27.94 1.88-34.3 5.66-6.37 3.77-9.55 10.21-9.55 19.32 0 7.25 2.37 13.02 7.1 17.31 4.81 4.22 11.33 6.33 19.54 6.33 11.33 0 20.4-4 27.2-11.99 6.88-8.06 10.33-18.76 10.33-32.08v-4.55h-20.32m40.74-8.44v70.94h-20.42v-18.87c-4.67 7.55-10.48 13.13-17.43 16.76-6.96 3.55-15.47 5.33-25.54 5.33-12.73 0-22.87-3.55-30.42-10.66-7.47-7.18-11.21-16.76-11.21-28.75 0-13.99 4.66-24.54 13.99-31.64 9.4-7.1 23.39-10.66 41.96-10.66h28.65v-2c0-9.4-3.11-16.65-9.33-21.76-6.14-5.18-14.8-7.77-25.98-7.77-7.1 0-14.02.85-20.76 2.55a82.3 82.3 0 00-19.43 7.66V180.4a132.87 132.87 0 0121.76-6.44 99.6 99.6 0 0120.54-2.22c17.99 0 31.42 4.67 40.3 14 8.88 9.32 13.32 23.45 13.32 42.4M1278.5 224.03v75.05h-20.43V224.7c0-11.77-2.3-20.58-6.88-26.42-4.59-5.85-11.47-8.77-20.65-8.77-11.03 0-19.72 3.51-26.09 10.54-6.36 7.03-9.55 16.62-9.55 28.76v70.27h-20.53V174.74h20.53v19.32c4.89-7.48 10.63-13.07 17.21-16.77 6.66-3.7 14.32-5.55 22.98-5.55 14.29 0 25.1 4.44 32.42 13.32 7.33 8.81 11 21.8 11 38.97M1371.2 310.63c-5.77 14.8-11.4 24.46-16.87 28.97-5.48 4.52-12.8 6.77-21.99 6.77h-16.31v-17.1H1328c5.63 0 10-1.33 13.1-3.99 3.11-2.66 6.56-8.96 10.33-18.87l3.66-9.33-50.29-122.34h21.65l38.86 97.25 38.85-97.25h21.65l-54.62 135.89"/>
  </g>
  <g fill="#666" font-family="Bitstream Vera Sans" font-size="102.53" font-weight="400">
    <path d="M438.03 102.2c0-6.67-1.38-11.84-4.15-15.51-2.74-3.67-6.6-5.51-11.57-5.51-4.94 0-8.8 1.84-11.56 5.5-2.74 3.68-4.1 8.85-4.1 15.53 0 6.64 1.36 11.8 4.1 15.46 2.77 3.68 6.62 5.51 11.56 5.51 4.98 0 8.83-1.83 11.57-5.5 2.77-3.68 4.15-8.83 4.15-15.47m9.21 21.72c0 9.55-2.12 16.64-6.35 21.28-4.24 4.67-10.73 7-19.48 7-3.24 0-6.29-.24-9.16-.74a44.69 44.69 0 01-8.36-2.2v-8.97a36.41 36.41 0 008 3.26c2.65.7 5.33 1.05 8.07 1.05 6.04 0 10.56-1.59 13.57-4.76 3-3.14 4.5-7.9 4.5-14.27v-4.55a19.03 19.03 0 01-7.3 7.4c-2.98 1.64-6.53 2.46-10.67 2.46-6.88 0-12.42-2.62-16.62-7.86-4.2-5.24-6.3-12.18-6.3-20.82 0-8.68 2.1-15.64 6.3-20.88 4.2-5.24 9.74-7.86 16.62-7.86 4.14 0 7.7.82 10.66 2.45 2.97 1.64 5.4 4.1 7.31 7.41v-8.5h9.21v49.1M514.18 100.55v4.5h-42.36c.4 6.35 2.3 11.19 5.71 14.53 3.44 3.3 8.21 4.95 14.32 4.95 3.54 0 6.96-.43 10.26-1.3a45.63 45.63 0 009.91-3.9v8.7c-3.3 1.4-6.69 2.48-10.16 3.21-3.47.74-7 1.1-10.56 1.1-8.95 0-16.04-2.6-21.28-7.8-5.2-5.21-7.8-12.26-7.8-21.13 0-9.18 2.46-16.46 7.4-21.83 4.97-5.4 11.67-8.11 20.08-8.11 7.54 0 13.5 2.44 17.87 7.3 4.4 4.85 6.6 11.44 6.6 19.78m-9.2-2.7c-.07-5.04-1.5-9.06-4.26-12.06-2.74-3-6.38-4.51-10.91-4.51-5.14 0-9.27 1.45-12.37 4.36-3.07 2.9-4.84 6.99-5.3 12.26l32.83-.05M575.7 97.05v33.84h-9.2V97.35c0-5.3-1.04-9.28-3.11-11.92-2.07-2.63-5.18-3.95-9.31-3.95-4.98 0-8.9 1.59-11.77 4.76-2.87 3.17-4.3 7.49-4.3 12.96v31.7h-9.27V74.81h9.27v8.71c2.2-3.37 4.78-5.89 7.76-7.56 3-1.67 6.45-2.5 10.36-2.5 6.44 0 11.31 2 14.62 6 3.3 3.98 4.95 9.84 4.95 17.58M642.13 100.55v4.5h-42.35c.4 6.35 2.3 11.19 5.7 14.53 3.45 3.3 8.22 4.95 14.33 4.95 3.53 0 6.96-.43 10.26-1.3a45.63 45.63 0 009.91-3.9v8.7c-3.3 1.4-6.69 2.48-10.16 3.21-3.47.74-7 1.1-10.56 1.1-8.95 0-16.04-2.6-21.28-7.8-5.2-5.21-7.81-12.26-7.81-21.13 0-9.18 2.47-16.46 7.4-21.83 4.98-5.4 11.67-8.11 20.08-8.11 7.55 0 13.5 2.44 17.88 7.3 4.4 4.85 6.6 11.44 6.6 19.78m-9.2-2.7c-.07-5.04-1.5-9.06-4.26-12.06-2.74-3-6.38-4.51-10.92-4.51-5.14 0-9.26 1.45-12.36 4.36-3.07 2.9-4.84 6.99-5.3 12.26l32.83-.05M689.54 83.43a11.63 11.63 0 00-3.4-1.3c-1.2-.3-2.54-.45-4-.45-5.21 0-9.22 1.7-12.02 5.1-2.77 3.38-4.16 8.23-4.16 14.57v29.54h-9.26V74.82h9.26v8.71a18.72 18.72 0 017.56-7.56c3.1-1.67 6.88-2.5 11.32-2.5.63 0 1.33.05 2.1.15.77.07 1.62.18 2.55.35l.05 9.46M699.3 74.82h9.22v56.07h-9.22V74.82m0-21.83h9.22v11.67h-9.22V52.99M768.09 76.97v8.61a34.8 34.8 0 00-7.86-3.2c-2.6-.73-5.24-1.1-7.91-1.1-5.97 0-10.61 1.9-13.92 5.7-3.3 3.78-4.95 9.08-4.95 15.93 0 6.84 1.65 12.16 4.95 15.97 3.3 3.77 7.95 5.65 13.92 5.65 2.67 0 5.3-.35 7.91-1.05a36.64 36.64 0 007.86-3.25v8.5a37.74 37.74 0 01-8.01 2.71c-2.74.6-5.66.9-8.76.9-8.44 0-15.15-2.65-20.13-7.96-4.97-5.3-7.45-12.46-7.45-21.47 0-9.15 2.5-16.34 7.5-21.58 5.04-5.24 11.94-7.86 20.68-7.86 2.84 0 5.6.3 8.31.9 2.7.57 5.32 1.44 7.86 2.6M816.65 53h9.21v77.9h-9.21V53M866.81 81.28c-4.94 0-8.84 1.94-11.71 5.8-2.87 3.84-4.3 9.12-4.3 15.83 0 6.7 1.41 12 4.25 15.87 2.87 3.83 6.79 5.75 11.76 5.75 4.9 0 8.8-1.93 11.67-5.8 2.87-3.88 4.3-9.15 4.3-15.82 0-6.65-1.43-11.9-4.3-15.77a13.72 13.72 0 00-11.67-5.86m0-7.81c8.01 0 14.3 2.6 18.88 7.81 4.57 5.2 6.85 12.42 6.85 21.63 0 9.17-2.28 16.38-6.85 21.62-4.58 5.21-10.87 7.81-18.88 7.81-8.04 0-14.35-2.6-18.92-7.8-4.54-5.25-6.81-12.46-6.81-21.63 0-9.21 2.27-16.42 6.8-21.63 4.58-5.2 10.89-7.81 18.93-7.81M944.66 102.2c0-6.67-1.39-11.84-4.16-15.51-2.73-3.67-6.59-5.51-11.56-5.51-4.94 0-8.8 1.84-11.57 5.5-2.73 3.68-4.1 8.85-4.1 15.53 0 6.64 1.37 11.8 4.1 15.46 2.77 3.68 6.63 5.51 11.57 5.51 4.97 0 8.83-1.83 11.56-5.5 2.77-3.68 4.16-8.83 4.16-15.47m9.21 21.72c0 9.55-2.12 16.64-6.36 21.28-4.24 4.67-10.73 7-19.47 7-3.24 0-6.3-.24-9.16-.74a44.69 44.69 0 01-8.36-2.2v-8.97a36.41 36.41 0 008 3.26c2.64.7 5.33 1.05 8.07 1.05 6.04 0 10.56-1.59 13.56-4.76 3-3.14 4.5-7.9 4.5-14.27v-4.55a19.03 19.03 0 01-7.3 7.4c-2.97 1.64-6.53 2.46-10.66 2.46-6.88 0-12.42-2.62-16.62-7.86-4.21-5.24-6.31-12.18-6.31-20.82 0-8.68 2.1-15.64 6.3-20.88 4.21-5.24 9.75-7.86 16.63-7.86 4.13 0 7.69.82 10.66 2.45 2.97 1.64 5.4 4.1 7.3 7.41v-8.5h9.22v49.1M994.57 81.28c-4.94 0-8.84 1.94-11.71 5.8-2.87 3.84-4.31 9.12-4.31 15.83 0 6.7 1.42 12 4.26 15.87 2.87 3.83 6.79 5.75 11.76 5.75 4.9 0 8.8-1.93 11.66-5.8 2.87-3.88 4.31-9.15 4.31-15.82 0-6.65-1.44-11.9-4.3-15.77a13.72 13.72 0 00-11.67-5.86m0-7.81c8.01 0 14.3 2.6 18.87 7.81 4.58 5.2 6.86 12.42 6.86 21.63 0 9.17-2.28 16.38-6.86 21.62-4.57 5.21-10.86 7.81-18.87 7.81-8.04 0-14.35-2.6-18.92-7.8-4.54-5.25-6.81-12.46-6.81-21.63 0-9.21 2.27-16.42 6.8-21.63 4.58-5.2 10.89-7.81 18.93-7.81"/>
  </g>
  <path fill="url(#b)" d="M-184.26 202.82c0 157.74-127.88 285.6-285.61 285.6-157.74 0-285.61-127.86-285.61-285.6S-627.61-82.8-469.88-82.8c157.74 0 285.62 127.87 285.62 285.6z" transform="scale(.61927) rotate(-45 7.8 -667.74)"/>
  <path fill="#eee" d="M302.81 150.51c42.06 42.06 42.06 110.24 0 152.3-42.06 42.06-110.24 42.06-152.3 0-42.05-42.06-42.05-110.24 0-152.3 42.06-42.05 110.24-42.05 152.3 0z"/>
</svg>