<svg xmlns="http://www.w3.org/2000/svg" fill-rule="evenodd" stroke-linejoin="round" stroke-miterlimit="2" clip-rule="evenodd" viewBox="0 0 2042 550">
  <defs/>
  <g fill-rule="nonzero">
    <path fill="#00354e" d="M690.221 182.996c-.604 1.204-1.3 2.05-2.091 2.542-.796.495-1.742.737-2.834.737-1.095 0-2.325-.42-3.691-1.27a123.648 123.648 0 00-4.846-2.83c-1.858-1.042-4.03-1.987-6.521-2.829-2.487-.85-5.433-1.27-8.82-1.27-3.067 0-5.734.366-8 1.103-2.276.738-4.192 1.767-5.747 3.08-1.558 1.312-2.725 2.883-3.491 4.716-.767 1.833-1.146 3.842-1.146 6.03 0 2.791.779 5.116 2.342 6.978 1.558 1.859 3.62 3.446 6.195 4.759 2.567 1.316 5.496 2.491 8.78 3.525a448.3 448.3 0 0110.05 3.329 97.685 97.685 0 0110.058 4.104 34.84 34.84 0 018.78 5.909c2.57 2.375 4.632 5.287 6.19 8.737 1.563 3.446 2.342 7.63 2.342 12.558 0 5.363-.916 10.38-2.75 15.055-1.833 4.679-4.512 8.758-8.041 12.229-3.525 3.475-7.838 6.208-12.925 8.208-5.088 1.996-10.913 2.996-17.48 2.996a56.47 56.47 0 01-11.162-1.108 58.784 58.784 0 01-10.546-3.163 54.813 54.813 0 01-9.433-4.92c-2.93-1.913-5.538-4.047-7.842-6.4l6.404-10.588a8.12 8.12 0 012.175-1.93c.846-.52 1.788-.779 2.83-.779 1.366 0 2.845.563 4.433 1.68a131.568 131.568 0 005.617 3.733c2.162 1.367 4.708 2.617 7.633 3.733 2.929 1.125 6.442 1.684 10.55 1.684 6.287 0 11.158-1.488 14.604-4.471 3.446-2.984 5.17-7.263 5.17-12.846 0-3.113-.778-5.658-2.34-7.63-1.56-1.97-3.622-3.62-6.192-4.966-2.575-1.337-5.5-2.47-8.78-3.404a274.058 274.058 0 01-10.016-3.038 87.107 87.107 0 01-10.009-3.933 32.46 32.46 0 01-8.779-5.992c-2.575-2.466-4.637-5.541-6.2-9.237-1.558-3.692-2.337-8.246-2.337-13.659 0-4.32.862-8.537 2.587-12.645 1.721-4.1 4.238-7.738 7.546-10.913 3.313-3.167 7.37-5.712 12.188-7.629 4.812-1.917 10.312-2.87 16.491-2.87 7.004 0 13.459 1.09 19.371 3.278 5.908 2.192 10.938 5.254 15.1 9.196l-5.417 10.421zM741.18 281.392c-7.275 0-12.88-2.063-16.821-6.196-3.942-4.13-5.908-9.837-5.908-17.112v-47.021h-8.534c-1.096 0-2.041-.359-2.833-1.071-.796-.708-1.192-1.78-1.192-3.196v-8.046l13.546-2.217 4.263-22.979c.216-1.091.725-1.937 1.52-2.541.792-.6 1.788-.905 2.996-.905h10.5v26.509h22.163v14.446h-22.163v45.625c0 2.625.654 4.679 1.971 6.158 1.313 1.475 3.067 2.213 5.254 2.213 1.259 0 2.313-.15 3.163-.455.841-.295 1.579-.612 2.208-.937a28.192 28.192 0 001.683-.946c.496-.304.988-.454 1.48-.454.6 0 1.095.15 1.475.454.387.304.795.754 1.229 1.354l6.075 9.85c-2.954 2.463-6.346 4.321-10.175 5.575a37.857 37.857 0 01-11.9 1.892zM832.68 211.146h5.17c2.076 0 3.8-.292 5.172-.862 1.362-.575 2.545-1.492 3.525-2.755l32.745-41.437c1.367-1.754 2.809-2.967 4.309-3.659 1.504-.675 3.408-1.02 5.7-1.02h19.041l-39.962 49.32c-1.258 1.53-2.458 2.821-3.613 3.855a16.49 16.49 0 01-3.691 2.541 16.475 16.475 0 014.879 2.796c1.45 1.2 2.858 2.734 4.225 4.596l41.2 55.554h-19.533c-2.621 0-4.584-.366-5.867-1.104-1.283-.742-2.367-1.817-3.238-3.246l-33.566-43.816c-1.096-1.43-2.325-2.45-3.692-3.08-1.367-.629-3.312-.945-5.83-.945h-6.974v52.191h-22.075V161.33h22.075v49.817zM944.867 195.88v84.195h-20.275V195.88h20.275zm3.03-24.542c0 1.754-.355 3.395-1.063 4.929a13.57 13.57 0 01-2.83 4.016c-1.174 1.155-2.562 2.071-4.15 2.755-1.587.683-3.278 1.02-5.087 1.02-1.745 0-3.404-.337-4.962-1.02-1.558-.684-2.913-1.6-4.058-2.755a13.129 13.129 0 01-2.755-4.016c-.683-1.534-1.02-3.175-1.02-4.93 0-1.8.337-3.495 1.02-5.087.684-1.579 1.6-2.954 2.755-4.1 1.145-1.15 2.5-2.062 4.058-2.746a12.24 12.24 0 014.962-1.029c1.809 0 3.5.346 5.088 1.03 1.587.683 2.975 1.595 4.15 2.745 1.17 1.146 2.117 2.521 2.83 4.1a12.371 12.371 0 011.062 5.088zM962.5 158.13h20.276v121.945H962.5zM1037.917 265.221c4.217 0 7.8-.87 10.755-2.625 2.954-1.746 5.741-4.237 8.37-7.467v-37.75c-2.295-2.791-4.8-4.758-7.508-5.908-2.712-1.146-5.625-1.72-8.737-1.72-3.067 0-5.842.574-8.334 1.72-2.491 1.15-4.596 2.883-6.32 5.213-1.721 2.325-3.046 5.279-3.976 8.862-.933 3.588-1.395 7.813-1.395 12.68 0 4.92.391 9.095 1.187 12.512.792 3.425 1.925 6.212 3.408 8.37 1.48 2.163 3.28 3.721 5.413 4.676 2.133.962 4.517 1.437 7.137 1.437zm27.005 14.854c-2.625 0-4.35-1.229-5.171-3.687l-1.642-8.13a50.413 50.413 0 01-5.496 5.334 35.246 35.246 0 01-6.2 4.108 32.187 32.187 0 01-7.137 2.663c-2.546.629-5.292.946-8.246.946-4.6 0-8.808-.959-12.642-2.871-3.829-1.917-7.129-4.692-9.887-8.33-2.763-3.637-4.896-8.137-6.4-13.504-1.504-5.362-2.259-11.491-2.259-18.379 0-6.241.85-12.037 2.546-17.396 1.692-5.362 4.13-10.016 7.304-13.95 3.175-3.941 6.975-7.02 11.405-9.237 4.433-2.213 9.408-3.325 14.937-3.325 4.7 0 8.725.754 12.063 2.258a31.557 31.557 0 018.946 6.033V158.13h20.262v121.946h-12.383zM1125.818 267.442c2.075 0 3.987-.192 5.741-.567a22.008 22.008 0 004.963-1.7 26.446 26.446 0 004.516-2.783c1.455-1.104 2.913-2.413 4.388-3.921v-14.092c-5.908 0-10.842.371-14.813 1.117-3.962.742-7.15 1.692-9.558 2.854-2.404 1.15-4.117 2.509-5.13 4.046-1.007 1.546-1.516 3.22-1.516 5.042 0 3.583 1.054 6.146 3.159 7.683 2.104 1.546 4.854 2.32 8.25 2.32zm39.391 12.633h-9.112c-1.913 0-3.417-.283-4.513-.858-1.091-.58-1.912-1.738-2.458-3.492l-1.808-5.991c-2.134 1.92-4.225 3.604-6.28 5.045a38.292 38.292 0 01-6.358 3.659 32.723 32.723 0 01-6.98 2.216c-2.457.488-5.195.738-8.2.738-3.562 0-6.84-.483-9.85-1.442-3.007-.962-5.59-2.4-7.757-4.325-2.163-1.92-3.846-4.308-5.046-7.162-1.209-2.854-1.809-6.175-1.809-9.963 0-3.187.842-6.325 2.505-9.425 1.67-3.104 4.445-5.904 8.333-8.4 3.883-2.496 9.054-4.57 15.508-6.216 6.454-1.646 14.471-2.475 24.042-2.475v-4.955c0-5.679-1.188-9.887-3.567-12.616-2.383-2.725-5.841-4.088-10.383-4.088-3.28 0-6.017.38-8.2 1.146-2.196.767-4.092 1.63-5.708 2.588a225.382 225.382 0 01-4.471 2.583c-1.367.767-2.871 1.15-4.517 1.15-1.367 0-2.546-.358-3.525-1.071a8.327 8.327 0 01-2.383-2.62l-3.692-6.488c9.683-8.863 21.363-13.296 35.042-13.296 4.925 0 9.312.808 13.17 2.425 3.859 1.612 7.126 3.854 9.809 6.729 2.68 2.87 4.717 6.308 6.117 10.296 1.387 3.996 2.091 8.375 2.091 13.129v53.18zM1231.838 245.775c0 3.009.517 5.717 1.559 8.125 1.041 2.409 2.466 4.446 4.266 6.109 1.809 1.67 3.9 2.954 6.28 3.858 2.383.904 4.908 1.354 7.596 1.354 4.808 0 9.2-.746 13.166-2.258a38.797 38.797 0 0010.875-6.275l-31.187-32.004c-4.375 2.841-7.559 6.045-9.559 9.6-1.996 3.554-2.996 7.391-2.996 11.491zm28.563-85.675c4.808 0 9.117.738 12.92 2.217 3.805 1.475 7.063 3.446 9.768 5.908 2.708 2.458 4.845 5.275 6.4 8.45 1.558 3.175 2.475 6.454 2.754 9.85l-12.888 2.704a1.607 1.607 0 01-.533.084h-.538c-.925 0-1.758-.255-2.5-.78-.737-.516-1.325-1.325-1.758-2.416a22.02 22.02 0 00-1.892-4.067 14.002 14.002 0 00-2.787-3.367c-1.1-.954-2.383-1.72-3.858-2.291-1.48-.58-3.175-.863-5.088-.863-2.3 0-4.35.392-6.158 1.188-1.809.791-3.334 1.862-4.596 3.2a13.666 13.666 0 00-2.871 4.675 16.095 16.095 0 00-.988 5.625c0 1.641.18 3.229.538 4.762.354 1.534.917 3.059 1.68 4.592.77 1.533 1.766 3.104 2.995 4.72 1.233 1.613 2.75 3.355 4.554 5.21l31.517 32.74a57.921 57.921 0 004.346-10.912 60.829 60.829 0 002.133-11.654c.113-1.254.52-2.266 1.233-3.033.709-.767 1.696-1.15 2.955-1.15h12.72c-.058 7.22-1.1 14.117-3.12 20.683-2.025 6.563-4.921 12.609-8.7 18.134l24.866 25.766h-19.858c-1.038 0-1.958-.05-2.75-.166a8.735 8.735 0 01-2.258-.609 10.238 10.238 0 01-2.05-1.191c-.655-.492-1.338-1.121-2.055-1.888l-8.208-8.454c-5.246 4.267-11.087 7.608-17.517 10.008-6.429 2.409-13.391 3.617-20.883 3.617-4.596 0-9.083-.78-13.458-2.342-4.384-1.558-8.292-3.816-11.734-6.77-3.45-2.955-6.229-6.521-8.333-10.705-2.104-4.187-3.158-8.904-3.158-14.158 0-3.663.6-7.154 1.804-10.463a35.518 35.518 0 015.008-9.233c2.133-2.846 4.663-5.42 7.592-7.712 2.925-2.3 6.137-4.267 9.641-5.909-2.9-4.108-5.025-8.112-6.362-12.025-1.342-3.912-2.008-7.812-2.008-11.692 0-4.108.75-8.008 2.254-11.7a27.513 27.513 0 016.566-9.637c2.871-2.738 6.384-4.913 10.546-6.53 4.155-1.608 8.863-2.416 14.117-2.416zM1388.91 228.05v34.796h22.4c4.104 0 7.537-.496 10.304-1.48 2.754-.987 4.97-2.295 6.641-3.94a14.433 14.433 0 003.609-5.742c.745-2.188 1.112-4.513 1.112-6.98 0-2.566-.408-4.879-1.229-6.929-.82-2.05-2.113-3.804-3.858-5.254-1.755-1.45-3.996-2.558-6.73-3.325-2.737-.767-6.05-1.146-9.933-1.146h-22.317zm0-15.262h17.641c7.492 0 13.183-1.371 17.071-4.109 3.88-2.733 5.825-7.079 5.825-13.046 0-6.183-1.754-10.587-5.254-13.216-3.504-2.621-8.971-3.934-16.413-3.934h-18.87v34.305zm-22.076 67.287V161.413h40.946c7.767 0 14.4.737 19.9 2.216 5.5 1.475 10.017 3.584 13.542 6.317 3.53 2.737 6.117 6.046 7.754 9.93 1.642 3.887 2.463 8.262 2.463 13.128 0 2.792-.413 5.463-1.23 8.009-.82 2.541-2.095 4.92-3.816 7.137-1.725 2.209-3.913 4.225-6.563 6.025-2.658 1.809-5.82 3.342-9.479 4.6 16.304 3.663 24.45 12.471 24.45 26.421 0 5.038-.954 9.683-2.87 13.954-1.913 4.267-4.709 7.946-8.367 11.038-3.667 3.087-8.18 5.512-13.542 7.262-5.363 1.754-11.488 2.625-18.383 2.625h-44.805zM1499.205 267.442c2.075 0 3.988-.192 5.742-.567 1.75-.379 3.404-.946 4.963-1.7a26.608 26.608 0 004.516-2.783c1.45-1.104 2.913-2.413 4.388-3.921v-14.092c-5.909 0-10.842.371-14.813 1.117-3.966.742-7.15 1.692-9.558 2.854-2.408 1.15-4.121 2.509-5.13 4.046-1.012 1.546-1.516 3.22-1.516 5.042 0 3.583 1.054 6.146 3.158 7.683 2.105 1.546 4.855 2.32 8.25 2.32zm39.388 12.633h-9.113c-1.912 0-3.416-.283-4.508-.858-1.096-.58-1.917-1.738-2.462-3.492l-1.809-5.991c-2.133 1.92-4.225 3.604-6.275 5.045a38.292 38.292 0 01-6.358 3.659 32.798 32.798 0 01-6.98 2.216c-2.462.488-5.195.738-8.203.738-3.559 0-6.842-.483-9.85-1.442-3.005-.962-5.592-2.4-7.755-4.325-2.166-1.92-3.845-4.308-5.045-7.162-1.209-2.854-1.809-6.175-1.809-9.963 0-3.187.838-6.325 2.504-9.425 1.667-3.104 4.446-5.904 8.334-8.4 3.879-2.496 9.05-4.57 15.504-6.216 6.458-1.646 14.475-2.475 24.046-2.475v-4.955c0-5.679-1.192-9.887-3.567-12.616-2.383-2.725-5.842-4.088-10.383-4.088-3.284 0-6.017.38-8.204 1.146-2.192.767-4.088 1.63-5.705 2.588a225.382 225.382 0 01-4.47 2.583c-1.367.767-2.871 1.15-4.517 1.15-1.367 0-2.546-.358-3.525-1.071a8.327 8.327 0 01-2.383-2.62l-3.692-6.488c9.683-8.863 21.362-13.296 35.037-13.296 4.93 0 9.317.808 13.171 2.425 3.859 1.612 7.13 3.854 9.809 6.729 2.683 2.87 4.72 6.308 6.116 10.296 1.392 3.996 2.092 8.375 2.092 13.129v53.18zM1556.564 158.13h20.275v121.945h-20.275zM1626.322 267.442c2.071 0 3.988-.192 5.742-.567 1.75-.379 3.404-.946 4.962-1.7a26.608 26.608 0 004.517-2.783c1.45-1.104 2.912-2.413 4.387-3.921v-14.092c-5.908 0-10.841.371-14.812 1.117-3.967.742-7.15 1.692-9.558 2.854-2.409 1.15-4.121 2.509-5.13 4.046-1.012 1.546-1.516 3.22-1.516 5.042 0 3.583 1.054 6.146 3.158 7.683 2.104 1.546 4.854 2.32 8.25 2.32zm39.388 12.633h-9.113c-1.912 0-3.417-.283-4.508-.858-1.096-.58-1.917-1.738-2.463-3.492l-1.808-5.991c-2.133 1.92-4.225 3.604-6.275 5.045a38.292 38.292 0 01-6.358 3.659 32.798 32.798 0 01-6.98 2.216c-2.462.488-5.195.738-8.204.738-3.558 0-6.841-.483-9.85-1.442-3.004-.962-5.591-2.4-7.754-4.325-2.162-1.92-3.846-4.308-5.046-7.162-1.208-2.854-1.808-6.175-1.808-9.963 0-3.187.837-6.325 2.504-9.425 1.667-3.104 4.446-5.904 8.333-8.4 3.88-2.496 9.05-4.57 15.505-6.216 6.458-1.646 14.475-2.475 24.045-2.475v-4.955c0-5.679-1.187-9.887-3.566-12.616-2.384-2.725-5.842-4.088-10.384-4.088-3.283 0-6.016.38-8.204 1.146-2.191.767-4.087 1.63-5.704 2.588a225.382 225.382 0 01-4.47 2.583c-1.367.767-2.872 1.15-4.517 1.15-1.367 0-2.546-.358-3.525-1.071a8.327 8.327 0 01-2.384-2.62l-3.691-6.488c9.683-8.863 21.362-13.296 35.037-13.296 4.93 0 9.317.808 13.175 2.425 3.854 1.612 7.125 3.854 9.804 6.729 2.684 2.87 4.721 6.308 6.117 10.296 1.392 3.996 2.092 8.375 2.092 13.129v53.18zM1744.818 213.688c-.604.766-1.187 1.366-1.762 1.804-.58.437-1.413.658-2.505.658-1.041 0-2.05-.316-3.037-.946-.988-.629-2.163-1.337-3.53-2.133-1.366-.792-2.995-1.504-4.883-2.133-1.887-.63-4.225-.946-7.016-.946-3.554 0-6.675.65-9.35 1.933a17.677 17.677 0 00-6.696 5.538c-1.775 2.408-3.1 5.32-3.975 8.737-.88 3.417-1.313 7.296-1.313 11.617 0 4.487.475 8.479 1.434 11.975.954 3.508 2.341 6.446 4.146 8.829 1.804 2.375 3.991 4.183 6.562 5.413 2.575 1.229 5.47 1.841 8.704 1.841 3.225 0 5.834-.391 7.834-1.187 1.995-.792 3.679-1.663 5.045-2.625a85.386 85.386 0 003.571-2.625c1.013-.796 2.146-1.192 3.409-1.192 1.641 0 2.87.63 3.691 1.888l5.825 7.391c-2.241 2.621-4.679 4.825-7.3 6.6-2.629 1.78-5.35 3.2-8.166 4.271a41.89 41.89 0 01-8.746 2.258 62.545 62.545 0 01-8.938.655c-5.2 0-10.1-.971-14.696-2.913-4.591-1.946-8.6-4.775-12.016-8.496-3.425-3.72-6.13-8.275-8.125-13.662-1.996-5.388-2.996-11.534-2.996-18.421 0-6.183.883-11.913 2.667-17.196 1.779-5.28 4.387-9.85 7.837-13.7 3.446-3.858 7.713-6.883 12.8-9.07 5.088-2.188 10.946-3.284 17.558-3.284 6.296 0 11.809 1.012 16.538 3.037 4.733 2.021 8.987 4.921 12.762 8.696l-5.333 7.388zM1765.247 158.13h20.275v121.945h-20.275zM1831.726 267.442c2.075 0 3.988-.192 5.742-.567a22.008 22.008 0 004.963-1.7 26.608 26.608 0 004.516-2.783c1.45-1.104 2.913-2.413 4.388-3.921v-14.092c-5.909 0-10.842.371-14.813 1.117-3.966.742-7.15 1.692-9.558 2.854-2.408 1.15-4.12 2.509-5.13 4.046-1.012 1.546-1.516 3.22-1.516 5.042 0 3.583 1.054 6.146 3.158 7.683 2.105 1.546 4.855 2.32 8.25 2.32zm39.388 12.633h-9.113c-1.912 0-3.416-.283-4.508-.858-1.096-.58-1.917-1.738-2.462-3.492l-1.809-5.991c-2.133 1.92-4.225 3.604-6.275 5.045a38.292 38.292 0 01-6.358 3.659 32.798 32.798 0 01-6.98 2.216c-2.462.488-5.195.738-8.203.738-3.559 0-6.842-.483-9.846-1.442-3.009-.962-5.596-2.4-7.759-4.325-2.162-1.92-3.845-4.308-5.045-7.162-1.209-2.854-1.809-6.175-1.809-9.963 0-3.187.838-6.325 2.504-9.425 1.671-3.104 4.446-5.904 8.334-8.4 3.879-2.496 9.05-4.57 15.504-6.216 6.458-1.646 14.475-2.475 24.046-2.475v-4.955c0-5.679-1.188-9.887-3.567-12.616-2.383-2.725-5.842-4.088-10.383-4.088-3.284 0-6.017.38-8.204 1.146-2.192.767-4.088 1.63-5.705 2.588a225.382 225.382 0 01-4.47 2.583c-1.367.767-2.871 1.15-4.517 1.15-1.367 0-2.546-.358-3.525-1.071a8.327 8.327 0 01-2.383-2.62l-3.692-6.488c9.683-8.863 21.362-13.296 35.037-13.296 4.93 0 9.317.808 13.175 2.425 3.855 1.612 7.125 3.854 9.805 6.729 2.683 2.87 4.72 6.308 6.116 10.296 1.392 3.996 2.092 8.375 2.092 13.129v53.18zM1930.28 280.075h-18.383l-33.483-84.196h16.83c1.47 0 2.716.359 3.733 1.067 1.008.712 1.704 1.617 2.091 2.708l16.25 44.971a87.417 87.417 0 012.338 7.713c.629 2.52 1.187 5.033 1.679 7.554.496-2.521 1.054-5.033 1.683-7.554a72.227 72.227 0 012.417-7.713l16.662-44.97c.38-1.092 1.071-1.997 2.05-2.709.988-.708 2.167-1.067 3.534-1.067h16l-33.4 84.196zM2002.256 267.442c2.075 0 3.987-.192 5.741-.567a21.937 21.937 0 004.963-1.7 26.641 26.641 0 004.52-2.783c1.45-1.104 2.913-2.413 4.384-3.921v-14.092c-5.908 0-10.842.371-14.812 1.117-3.963.742-7.15 1.692-9.555 2.854-2.408 1.15-4.12 2.509-5.133 4.046-1.008 1.546-1.512 3.22-1.512 5.042 0 3.583 1.05 6.146 3.154 7.683 2.104 1.546 4.858 2.32 8.25 2.32zm39.391 12.633h-9.112c-1.913 0-3.417-.283-4.513-.858-1.091-.58-1.912-1.738-2.458-3.492l-1.808-5.991c-2.134 1.92-4.225 3.604-6.275 5.045a38.496 38.496 0 01-6.363 3.659 32.723 32.723 0 01-6.979 2.216c-2.458.488-5.192.738-8.2.738-3.562 0-6.842-.483-9.85-1.442-3.008-.962-5.592-2.4-7.758-4.325-2.163-1.92-3.846-4.308-5.046-7.162-1.204-2.854-1.804-6.175-1.804-9.963 0-3.187.837-6.325 2.5-9.425 1.67-3.104 4.446-5.904 8.333-8.4 3.883-2.496 9.054-4.57 15.508-6.216 6.455-1.646 14.475-2.475 24.042-2.475v-4.955c0-5.679-1.187-9.887-3.567-12.616-2.383-2.725-5.841-4.088-10.383-4.088-3.28 0-6.012.38-8.2 1.146-2.196.767-4.092 1.63-5.708 2.588-1.609.954-3.1 1.816-4.471 2.583-1.367.767-2.87 1.15-4.517 1.15-1.366 0-2.541-.358-3.525-1.071a8.327 8.327 0 01-2.383-2.62l-3.692-6.488c9.684-8.863 21.363-13.296 35.042-13.296 4.925 0 9.312.808 13.17 2.425 3.86 1.612 7.126 3.854 9.81 6.729 2.678 2.87 4.716 6.308 6.116 10.296 1.391 3.996 2.091 8.375 2.091 13.129v53.18zM633.584 360.55h11.262c2.713 0 5.1-.362 7.175-1.079 2.075-.712 3.809-1.72 5.213-3.008a12.6 12.6 0 003.187-4.63c.713-1.795 1.075-3.77 1.075-5.929 0-4.466-1.379-7.962-4.137-10.47-2.758-2.517-6.93-3.775-12.513-3.775h-11.262v28.891zm0 7.538v26.25h-9.45v-70.171h20.712c4.442 0 8.3.512 11.58 1.542 3.279 1.029 5.995 2.491 8.154 4.387a17.6 17.6 0 014.82 6.854c1.063 2.675 1.592 5.663 1.592 8.954 0 3.271-.57 6.255-1.708 8.967a19.338 19.338 0 01-5.025 7c-2.2 1.963-4.933 3.483-8.2 4.575-3.267 1.096-7.004 1.642-11.213 1.642h-11.262zM691.459 358.15h9.946c2.766 0 5.212-.333 7.316-1.004 2.105-.667 3.867-1.617 5.288-2.842 1.42-1.225 2.492-2.679 3.204-4.379.72-1.696 1.083-3.575 1.083-5.629 0-4.18-1.379-7.33-4.137-9.45-2.763-2.125-6.867-3.187-12.317-3.187H691.46v26.491zm0 6.909v29.279h-9.45v-70.171h19.833c4.434 0 8.275.446 11.509 1.346 3.229.896 5.895 2.2 8.008 3.891 2.104 1.7 3.658 3.746 4.67 6.146 1.01 2.404 1.522 5.088 1.522 8.054 0 2.488-.392 4.805-1.175 6.955a18.364 18.364 0 01-3.409 5.804c-1.483 1.716-3.291 3.179-5.433 4.383-2.138 1.208-4.563 2.125-7.267 2.742 1.171.683 2.217 1.683 3.13 2.991l20.466 27.859h-8.42c-1.734 0-3.005-.671-3.817-2.009l-18.221-25.075c-.55-.775-1.159-1.341-1.813-1.687-.646-.342-1.629-.508-2.933-.508h-7.2zM787.342 324.167v7.733h-33.691v23.313h27.275v7.441H753.65v23.942h33.691v7.742h-43.246v-70.171h43.246zM836.942 335.134c-.291.487-.6.858-.925 1.1-.329.25-.758.37-1.275.37-.558 0-1.2-.275-1.937-.833-.73-.554-1.663-1.167-2.788-1.837-1.129-.663-2.483-1.275-4.066-1.834-1.584-.554-3.5-.833-5.75-.833-2.125 0-4.005.283-5.638.854-1.629.58-2.996 1.35-4.083 2.33a9.545 9.545 0 00-2.48 3.453c-.55 1.321-.829 2.746-.829 4.28 0 1.962.48 3.587 1.442 4.875.963 1.291 2.242 2.391 3.821 3.304 1.583.916 3.38 1.708 5.387 2.379 2.009.667 4.067 1.362 6.171 2.08 2.104.72 4.159 1.528 6.167 2.424 2.012.9 3.804 2.03 5.388 3.4 1.587 1.375 2.858 3.054 3.82 5.046.963 1.992 1.446 4.442 1.446 7.342 0 3.075-.525 5.95-1.57 8.641a19.779 19.779 0 01-4.576 7.034c-2.008 1.991-4.47 3.554-7.396 4.695-2.916 1.146-6.241 1.717-9.962 1.717-4.542 0-8.675-.825-12.417-2.47-3.737-1.647-6.925-3.876-9.57-6.688l2.741-4.504a3.6 3.6 0 01.958-.905 2.22 2.22 0 011.246-.37c.684 0 1.471.37 2.35 1.108.884.73 1.984 1.537 3.304 2.417 1.325.887 2.925 1.695 4.805 2.425 1.87.737 4.166 1.1 6.875 1.1 2.254 0 4.262-.309 6.02-.925 1.767-.621 3.259-1.496 4.484-2.625a11.325 11.325 0 002.816-4.034c.655-1.57.98-3.316.98-5.241 0-2.125-.48-3.859-1.442-5.213-.963-1.358-2.23-2.492-3.8-3.408-1.563-.917-3.35-1.688-5.363-2.325-2.008-.634-4.062-1.288-6.166-1.959a62.35 62.35 0 01-6.171-2.325 19.943 19.943 0 01-5.363-3.429c-1.566-1.404-2.829-3.158-3.791-5.262-.963-2.104-1.446-4.709-1.446-7.809 0-2.487.483-4.879 1.446-7.2a18.539 18.539 0 014.183-6.17c1.825-1.792 4.092-3.234 6.783-4.309 2.692-1.075 5.784-1.616 9.28-1.616 3.916 0 7.495.62 10.72 1.862 3.234 1.242 6.059 3.038 8.471 5.383l-2.3 4.505zM860.45 362.359v24.437h15.176c2.712 0 5.041-.312 6.979-.929 1.942-.617 3.542-1.492 4.8-2.62a10.2 10.2 0 002.767-4.013c.587-1.55.879-3.259.879-5.117 0-3.625-1.28-6.492-3.842-8.596-2.558-2.104-6.442-3.162-11.63-3.162h-15.128zm0-6.755h12.538c2.675 0 4.992-.295 6.946-.883 1.963-.587 3.588-1.404 4.875-2.45a9.49 9.49 0 002.867-3.792c.616-1.487.933-3.108.933-4.875 0-4.112-1.242-7.133-3.73-9.058-2.478-1.925-6.328-2.887-11.553-2.887H860.45v23.945zm-9.503 38.734v-70.171h22.379c4.308 0 8.025.425 11.137 1.275 3.121.85 5.684 2.054 7.692 3.625 2.008 1.562 3.492 3.483 4.454 5.754.963 2.263 1.45 4.82 1.45 7.663 0 1.729-.275 3.391-.808 4.991a14.632 14.632 0 01-2.45 4.459c-1.092 1.366-2.467 2.591-4.113 3.67-1.654 1.08-3.583 1.959-5.808 2.642 5.129 1.017 8.996 2.858 11.608 5.533 2.609 2.68 3.917 6.205 3.917 10.58 0 2.97-.546 5.679-1.638 8.125-1.095 2.45-2.695 4.558-4.8 6.32-2.108 1.763-4.687 3.125-7.737 4.088-3.054.962-6.538 1.446-10.454 1.446h-24.83zM939.38 366.425v27.913h-9.45v-27.913l-25.708-42.258h8.32c.85 0 1.521.217 2.009.637.496.421.916.946 1.275 1.563l16.058 27.28a33.42 33.42 0 011.642 3.232 47.475 47.475 0 011.2 2.984c.362-1.013.754-2.021 1.179-3.034.42-1.016.962-2.075 1.617-3.183l16.012-27.28a6.191 6.191 0 011.2-1.49c.504-.467 1.167-.71 1.98-.71h8.42l-25.754 42.26zM1027.617 324.167v7.983h-22.67v62.188h-9.505V332.15H972.68v-7.983h54.937zM1080.847 324.167v7.733h-33.692v23.313h27.28v7.441h-27.28v23.942h33.692v7.742h-43.242v-70.171h43.242zM1101.022 358.15h9.941c2.771 0 5.213-.333 7.317-1.004 2.104-.667 3.87-1.617 5.292-2.842 1.42-1.225 2.491-2.679 3.204-4.379.717-1.696 1.08-3.575 1.08-5.629 0-4.18-1.38-7.33-4.134-9.45-2.767-2.125-6.867-3.187-12.317-3.187h-10.383v26.491zm0 6.909v29.279h-9.454v-70.171h19.837c4.433 0 8.27.446 11.508 1.346 3.225.896 5.896 2.2 8.005 3.891 2.104 1.7 3.662 3.746 4.67 6.146 1.013 2.404 1.521 5.088 1.521 8.054 0 2.488-.391 4.805-1.175 6.955a18.353 18.353 0 01-3.404 5.804c-1.487 1.716-3.296 3.179-5.433 4.383-2.142 1.208-4.567 2.125-7.271 2.742 1.17.683 2.217 1.683 3.133 2.991l20.467 27.859H1135c-1.73 0-3-.671-3.817-2.009l-18.216-25.075c-.555-.775-1.159-1.341-1.813-1.687-.65-.342-1.63-.508-2.937-.508h-7.196zM1153.463 324.167h9.5v70.17h-9.5zM1193.518 368.284h26.195l-11.02-28.546c-.713-1.763-1.413-3.967-2.105-6.613a94.176 94.176 0 01-1.05 3.7 46.485 46.485 0 01-1.004 2.963l-11.016 28.496zm45.979 26.054h-7.35c-.842 0-1.534-.217-2.054-.638a3.939 3.939 0 01-1.171-1.616l-6.563-16.938h-31.483l-6.563 16.938c-.233.587-.625 1.112-1.179 1.57-.55.459-1.241.684-2.054.684h-7.35l28.063-70.171h9.645l28.059 70.17zM1255.139 324.484c.412.212.875.65 1.4 1.304l40.641 52.879c-.1-.85-.166-1.675-.196-2.47a55.924 55.924 0 01-.045-2.33v-49.7h8.32v70.17h-4.795c-.755 0-1.38-.133-1.884-.39-.512-.263-1.008-.705-1.5-1.322l-40.591-52.837c.066.816.112 1.616.15 2.396.029.787.045 1.504.045 2.158v49.996h-8.325v-70.171h4.896c.85 0 1.48.108 1.884.317zM1390.751 379.846c.52 0 .992.208 1.42.638l3.722 4.058c-2.871 3.333-6.363 5.925-10.454 7.787-4.096 1.859-9.038 2.792-14.813 2.792-5.058 0-9.65-.875-13.762-2.62-4.113-1.747-7.621-4.197-10.525-7.347-2.909-3.15-5.159-6.925-6.759-11.337-1.6-4.404-2.404-9.254-2.404-14.542 0-5.287.863-10.137 2.575-14.541 1.713-4.409 4.12-8.196 7.22-11.359 3.105-3.166 6.813-5.62 11.143-7.37 4.325-1.746 9.1-2.621 14.325-2.621 5.158 0 9.604.804 13.341 2.404a33.57 33.57 0 019.963 6.508l-3.084 4.354c-.225.33-.487.6-.783.809-.292.216-.717.32-1.275.32-.42 0-.87-.154-1.342-.462a60.032 60.032 0 01-1.695-1.154 31.991 31.991 0 00-2.3-1.467c-.88-.525-1.925-1.012-3.134-1.467-1.204-.458-2.608-.845-4.208-1.154-1.604-.308-3.446-.462-5.533-.462-3.755 0-7.192.641-10.305 1.929-3.12 1.292-5.808 3.13-8.062 5.512-2.25 2.384-4.004 5.288-5.258 8.717-1.263 3.425-1.884 7.267-1.884 11.504 0 4.38.621 8.28 1.884 11.704 1.254 3.43 2.966 6.33 5.141 8.696a21.722 21.722 0 007.709 5.409c2.97 1.241 6.17 1.858 9.6 1.858 2.087 0 3.962-.125 5.629-.367 1.662-.246 3.208-.625 4.629-1.15 1.42-.52 2.742-1.179 3.967-1.983a30.72 30.72 0 003.695-2.867c.555-.487 1.092-.729 1.617-.729zM1465.28 394.338h-9.546v-31.925h-37.804v31.925h-9.55v-70.171h9.55v31.292h37.804v-31.292h9.546v70.17zM1505.772 386.796c2.908 0 5.496-.487 7.788-1.47 2.283-.98 4.22-2.347 5.8-4.113 1.583-1.759 2.795-3.871 3.625-6.317.833-2.446 1.25-5.142 1.25-8.079v-42.65h9.45v42.65c0 4.046-.65 7.804-1.938 11.262-1.292 3.459-3.133 6.455-5.53 8.988-2.4 2.525-5.328 4.512-8.79 5.95-3.46 1.433-7.347 2.154-11.655 2.154-4.308 0-8.196-.72-11.654-2.154-3.463-1.438-6.4-3.425-8.813-5.95-2.416-2.533-4.27-5.53-5.554-8.988-1.3-3.458-1.941-7.216-1.941-11.262v-42.65h9.454v42.604c0 2.933.416 5.625 1.246 8.075.833 2.45 2.041 4.554 3.625 6.321 1.583 1.762 3.525 3.142 5.825 4.133 2.304 1 4.904 1.496 7.812 1.496zM1554.547 358.15h9.946c2.77 0 5.212-.333 7.317-1.004 2.104-.667 3.866-1.617 5.287-2.842 1.42-1.225 2.492-2.679 3.204-4.379.721-1.696 1.084-3.575 1.084-5.629 0-4.18-1.38-7.33-4.138-9.45-2.762-2.125-6.867-3.187-12.317-3.187h-10.383v26.491zm0 6.909v29.279h-9.45v-70.171h19.833c4.434 0 8.275.446 11.509 1.346 3.229.896 5.896 2.2 8.008 3.891 2.104 1.7 3.658 3.746 4.67 6.146 1.01 2.404 1.522 5.088 1.522 8.054 0 2.488-.392 4.805-1.175 6.955a18.364 18.364 0 01-3.409 5.804c-1.483 1.716-3.291 3.179-5.433 4.383-2.137 1.208-4.562 2.125-7.267 2.742 1.171.683 2.217 1.683 3.134 2.991l20.462 27.859h-8.42c-1.73 0-3.005-.671-3.817-2.009l-18.221-25.075c-.55-.775-1.158-1.341-1.813-1.687-.645-.342-1.625-.508-2.933-.508h-7.2zM1652.626 379.846c.525 0 .996.208 1.421.638l3.725 4.058c-2.875 3.333-6.362 5.925-10.458 7.787-4.096 1.859-9.034 2.792-14.813 2.792-5.058 0-9.646-.875-13.758-2.62-4.113-1.747-7.62-4.197-10.53-7.347-2.903-3.15-5.158-6.925-6.758-11.337-1.595-4.404-2.4-9.254-2.4-14.542 0-5.287.863-10.137 2.575-14.541 1.713-4.409 4.117-8.196 7.221-11.359 3.104-3.166 6.813-5.62 11.138-7.37 4.329-1.746 9.1-2.621 14.325-2.621 5.162 0 9.608.804 13.346 2.404a33.676 33.676 0 019.962 6.508l-3.083 4.354c-.23.33-.492.6-.788.809-.291.216-.712.32-1.27.32-.421 0-.876-.154-1.346-.462a60.523 60.523 0 01-1.692-1.154 33.968 33.968 0 00-2.3-1.467c-.88-.525-1.925-1.012-3.133-1.467-1.209-.458-2.609-.845-4.209-1.154-1.604-.308-3.446-.462-5.533-.462-3.758 0-7.192.641-10.308 1.929-3.121 1.292-5.805 3.13-8.059 5.512-2.254 2.384-4.008 5.288-5.262 8.717-1.259 3.425-1.884 7.267-1.884 11.504 0 4.38.625 8.28 1.884 11.704 1.254 3.43 2.966 6.33 5.141 8.696a21.701 21.701 0 007.713 5.409c2.97 1.241 6.167 1.858 9.6 1.858 2.083 0 3.962-.125 5.625-.367 1.667-.246 3.212-.625 4.633-1.15 1.421-.52 2.738-1.179 3.963-1.983 1.225-.796 2.454-1.754 3.7-2.867.55-.487 1.091-.729 1.612-.729zM1725.193 394.338h-9.546v-31.925h-37.804v31.925h-9.554v-70.171h9.554v31.292h37.804v-31.292h9.546v70.17z"/>
    <path fill="#8cb8bf" d="M294.121 114.896c0 29.412-9.267 53.254-20.696 53.254-11.425 0-20.691-23.842-20.691-53.254 0-29.413 20.691-51.192 20.691-70.146 0 0 20.696 40.733 20.696 70.146zM409.463 258.242c-20.854 2.742-27.613 7.537-27.613 18.962 0 11.43 23.842 20.696 53.255 20.696 29.412 0 53.254-20.696 53.254-20.696-38.638-7.075-49.734-22.795-78.896-18.962zM391.225 186.863c-12.316 12.316-30.87 21.125-41.133 13.045-8.98-7.07 2.23-31.491 23.025-52.291 20.8-20.796 52.292-23.025 52.292-23.025-16.096 25.158-17.496 45.583-34.184 62.27zM333.538 176.588c-8.354 20.17-21.275 29.791-29.317 26.15-8.717-3.946-7.075-22.505-1.97-32.638 8.85-17.554 22.487-15.208 32.224-40.404 0 0 7.417 26.72-.937 46.892zM377.167 337.204c-26.038-9.904-33.963-22.175-29.383-29.316 3.245-5.067 16.312-7.888 30.933-1.43 21.808 9.638 19.087 16.117 42.113 31.68 0 0-23.259 6.829-43.663-.934zM390.18 245.35c-20.171 8.359-39.155 8.78-42.4.942-3.246-7.838 3.32-17.454 18.533-23.3 11.387-4.375 30.908-1.28 54.508-6.963 0 0-10.475 20.967-30.642 29.321zM380.08 121.142c-8.813 11.5-22.388 17.408-28.546 14.346-7.592-3.784-4.421-23.013 6.516-41.909 10.942-18.891 33.104-26.512 33.104-26.512-5.175 21.041 0 39.62-11.075 54.075zM459.013 243.4c-20.421 7.713-31.6-.946-32.604-9.366-1.004-8.425 15.758-17.346 37.437-19.93 21.675-2.579 41.067 10.58 41.067 10.58-21.608 7.941-24.5 10.633-45.9 18.716zM340.8 89.683c-5.4 21.15-16.446 36.596-24.662 34.5-8.221-2.1-11.913-18.087-6.363-37.57 5.192-18.234 15.725-22.692 25.93-39.034 0 0 10.5 20.95 5.095 42.104zM417.559 108.592c-7.184 7.808-15.463 11.875-18.496 9.083-3.034-2.787-.934-10.48 5.925-17.537 6.416-6.609 11.954-6.088 20.079-10.734 0 0-.33 11.38-7.508 19.188zM488.38 263.125c-10.605-.225-19.13-3.746-19.042-7.866.087-4.121 7.242-7.63 17.075-7.15 9.2.445 12.47 4.937 21.325 7.962 0 0-8.754 7.28-19.358 7.054zM491.8 296.417c-10.566-.942-19.425 1.625-19.791 5.73-.367 4.107 6.362 8.378 16.187 8.982 9.196.567 12.938-3.541 22.071-5.575 0 0-7.9-8.195-18.467-9.137zM307.467 57.542c.2 10.608-2.98 19.266-7.1 19.346-4.12.075-7.913-6.934-7.83-16.775.08-9.213 4.438-12.659 7.105-21.63 0 0 7.625 8.455 7.825 19.059zM438.667 130.633c-9.783 7.209-15.446 16.134-12.646 19.934 2.8 3.804 11.817 2.366 20.713-4.567 8.325-6.487 8.42-12.854 14.72-21.53 0 0-13-1.04-22.787 6.163zM352.396 66.725c-3.517 8.992-3.533 17.388-.042 18.75 3.492 1.367 8.942-3.42 11.975-11.85 2.838-7.887.205-12.204.759-20.704 0 0-9.175 4.817-12.692 13.804zM471.046 187.858c-11.458 4.05-19.47 10.946-17.896 15.396 1.575 4.454 10.621 5.7 21.15 1.65 9.846-3.791 11.792-9.854 20.342-16.325 0 0-12.142-4.775-23.596-.72zM452.171 188.646c-18.775 11.137-37.05 13.958-41.837 6.958-4.325-6.333-3.413-18.95 13.141-29.008 13.592-8.267 33.621-2.788 54.863-11.325 0 0-7.388 22.237-26.167 33.375zM460.425 341.13c-21.15-5.4-33.437-15.746-34.5-24.663-.387-3.25 3.425-11.325 28.4-7.717 19.421 2.804 26.146 14.263 48.205 27.28 0 0-20.95 10.504-42.105 5.1zM320.096 246.925c-8.758 6.334-15.742 4.438-17.958 2.217-4.234-4.23 2.15-15.454 13.016-26.233 10.867-10.775 27.259-11.871 27.259-11.871-11.225 11.225-8.554 25.937-22.317 35.887zM315.1 332.284c-11.237-9.417-12.112-15.246-8.07-19.259 4.045-4.012 15.695 1.171 26.02 11.58 10.325 10.408 11.371 26.112 11.371 26.112-15.375-10.663-21.108-11.546-29.32-18.433zM137.392 295.534c20.854-2.738 27.612-7.534 27.612-18.963 0-11.425-23.841-20.692-53.254-20.692-29.412 0-53.254 20.692-53.254 20.692 38.637 7.08 49.733 22.796 78.896 18.963zM186.717 157.663c12.575 12.054 21.775 30.416 13.912 40.845-6.879 9.13-31.533-1.558-52.762-21.912-21.234-20.354-24.125-51.792-24.125-51.792 25.487 15.559 45.937 16.525 62.975 32.859zM213.317 176.588c8.354 20.17 21.275 29.791 29.317 26.15 8.716-3.946 7.075-22.505 1.97-32.638-8.85-17.554-22.487-15.208-32.225-40.404 0 0-7.416 26.72.938 46.892zM169.688 337.204c26.037-9.904 33.962-22.175 29.383-29.316-3.246-5.067-16.313-7.888-30.933-1.43-21.809 9.638-19.088 16.117-42.109 31.68 0 0 23.254 6.829 43.659-.934zM156.675 245.35c20.171 8.359 39.154 8.78 42.4.942 3.246-7.838-3.32-17.454-18.533-23.3-11.388-4.375-30.909-1.28-54.509-6.963 0 0 10.475 20.967 30.642 29.321zM165.004 124.68c8.813 11.5 22.392 17.412 28.546 14.345 7.592-3.783 4.421-23.012-6.517-41.904-10.941-18.896-33.1-26.513-33.1-26.513 5.171 21.038 0 39.621 11.071 54.071zM93.875 217.471c21.82-.73 29.617 11.067 27.858 19.363-1.762 8.3-20.504 11.35-41.858 6.816-21.358-4.529-35.48-23.229-35.48-23.229 23.018-.567 26.618-2.183 49.48-2.95zM240.238 81.683c3.416 21.563-.609 40.117-8.984 41.446-8.379 1.325-18.1-11.887-20.72-31.979-2.455-18.8 5.454-27.062 8.345-46.108 0 0 17.942 15.075 21.359 36.641zM92.913 190.417c18.779 11.137 37.05 13.958 41.837 6.954 4.33-6.33 3.413-18.946-13.137-29.008-13.596-8.263-33.621-2.784-54.863-11.321 0 0 7.388 22.237 26.163 33.375zM84.658 341.13c21.155-5.4 33.442-15.746 34.5-24.663.388-3.25-3.42-11.325-28.4-7.717-19.42 2.804-26.141 14.263-48.2 27.28 0 0 20.95 10.504 42.1 5.1zM241.867 232.1c5.97 8.538 4.037 15.242 1.867 17.346-4.142 4.017-14.867-2.304-25.096-12.942-10.23-10.633-11.038-26.454-11.038-26.454 10.654 10.992 24.875 8.634 34.267 22.05zM232.188 332.03c11.4-9.555 12.287-15.467 8.187-19.538-4.104-4.07-15.92 1.192-26.396 11.75-10.475 10.558-11.537 26.483-11.537 26.483 15.6-10.816 21.412-11.712 29.746-18.696zM138.03 100.142c7.283 7.708 10.762 16.254 7.766 19.083-2.996 2.83-10.517.196-17.08-7.137-6.14-6.867-5.237-12.35-9.303-20.78 0 0 11.333 1.125 18.616 8.834zM58.475 263.125c10.604-.225 19.133-3.746 19.046-7.866-.088-4.121-7.246-7.63-17.08-7.15-9.195.445-12.466 4.937-21.324 7.962 0 0 8.754 7.28 19.358 7.054zM55.975 306.063c10.6-.35 19.083-3.971 18.95-8.092-.137-4.117-7.333-7.542-17.158-6.95-9.196.554-12.413 5.088-21.234 8.217 0 0 8.842 7.175 19.442 6.825zM257.846 57.542c.2 10.608-2.975 19.266-7.096 19.346-4.12.075-7.912-6.934-7.829-16.775.075-9.213 4.438-12.659 7.104-21.63 0 0 7.621 8.455 7.821 19.059zM106.417 134.175c9.787 7.204 15.45 16.13 12.65 19.933-2.8 3.8-11.821 2.367-20.713-4.566-8.325-6.488-8.425-12.854-14.725-21.534 0 0 13.004-1.041 22.788 6.167zM199.608 70.142c4.805 11.162 5.18 21.729.842 23.591-4.337 1.867-11.396-3.929-15.567-14.408-3.904-9.804-.77-15.346-1.825-26.02 0 0 11.75 5.674 16.55 16.837zM70.942 191.042c11.958 2.17 20.966 7.696 20.125 12.341-.846 4.65-9.575 7.326-20.613 5.009-10.329-2.171-13.216-7.846-22.691-12.867 0 0 11.22-6.654 23.179-4.483z"/>
    <path fill="#00354e" d="M345.088 264.738c-24.642 7.341-49.33 15.529-63.896 14.833-.713-21.7-1.213-38.917-1.583-48.917-1.155-30.829-3.484-31.75-6.184-31.75-2.696 0-5.025.921-6.179 31.75-.417 11.2-.996 31.446-1.85 56.913a3.737 3.737 0 00-.72-.188c-11.622-1.533-34.472-6.837-62.88-17.275-15.133-5.558-21.892-.479-11.963 5.238 22.413 12.904 74.838 27.383 74.346 42.396-.025.77.013 1.27.088 1.575-1.571 41.75-3.825 91.296-7.113 137.254H289.7c-3.679-51.425-6.062-107.342-7.646-151.796-.504-13.767 45.067-19.996 67.163-30.837 24.258-11.905 8.846-13.063-4.13-9.196z"/>
    <path fill="#00354e" d="M273.425 3.142C122.658 3.142 0 125.804 0 276.572 0 427.341 122.658 550 273.425 550 424.2 550 546.86 427.342 546.86 276.571c0-150.767-122.659-273.43-273.434-273.43zm0 19.466c140.263 0 253.967 113.705 253.967 253.963 0 140.263-113.704 253.963-253.967 253.963-140.258 0-253.962-113.7-253.962-253.963 0-140.258 113.704-253.963 253.962-253.963z"/>
    <path fill="#00354e" d="M273.425 446.45s-84.392-2.108-178.317 18.588c-.604-.567 27.875 23.104 21.092 17.933 89.342-24.462 157.225-21.391 157.225-21.391s67.888-3.071 157.23 21.391c-6.78 5.171 22.362-19.133 21.095-17.933-93.929-20.696-178.325-18.588-178.325-18.588z"/>
  </g>
</svg>