<svg xmlns="http://www.w3.org/2000/svg" style="fill-rule:evenodd;clip-rule:evenodd;stroke-linejoin:round;stroke-miterlimit:2" viewBox="0 0 547 547">
  <path d="M294.121 111.754c0 29.413-9.267 53.254-20.696 53.254-11.425 0-20.691-23.841-20.691-53.254 0-29.412 20.691-51.191 20.691-70.146 0 0 20.696 40.734 20.696 70.146zM409.463 255.1c-20.854 2.742-27.613 7.538-27.613 18.963 0 11.429 23.842 20.696 53.255 20.696 29.412 0 53.254-20.696 53.254-20.696-38.638-7.075-49.734-22.796-78.896-18.963zM391.225 183.721c-12.316 12.317-30.87 21.125-41.133 13.046-8.98-7.071 2.23-31.492 23.025-52.292 20.8-20.796 52.292-23.025 52.292-23.025-16.092 25.158-17.496 45.583-34.184 62.271zM333.538 173.446c-8.354 20.17-21.275 29.792-29.317 26.15-8.717-3.946-7.075-22.504-1.97-32.638 8.85-17.554 22.487-15.208 32.224-40.404 0 0 7.417 26.721-.937 46.892zM377.167 334.063c-26.038-9.904-33.963-22.175-29.383-29.317 3.245-5.067 16.312-7.887 30.933-1.43 21.808 9.638 19.087 16.118 42.113 31.68 0 0-23.259 6.83-43.663-.933zM390.18 242.209c-20.171 8.358-39.155 8.779-42.4.941-3.246-7.837 3.32-17.454 18.533-23.3 11.387-4.375 30.908-1.279 54.508-6.962 0 0-10.475 20.966-30.642 29.32zM380.08 118c-8.813 11.5-22.388 17.408-28.546 14.346-7.592-3.783-4.421-23.013 6.52-41.908 10.938-18.892 33.1-26.513 33.1-26.513-5.175 21.042 0 39.62-11.075 54.075zM459.017 240.259c-20.425 7.712-31.604-.946-32.608-9.367-1.004-8.425 15.758-17.346 37.437-19.93 21.675-2.578 41.067 10.58 41.067 10.58-21.608 7.942-24.496 10.633-45.896 18.717zM340.8 86.542c-5.4 21.15-16.446 36.596-24.662 34.5-8.221-2.1-11.909-18.088-6.363-37.571 5.192-18.233 15.725-22.692 25.93-39.033 0 0 10.5 20.95 5.095 42.104zM417.559 105.45c-7.184 7.808-15.463 11.875-18.496 9.083-3.034-2.787-.934-10.479 5.925-17.537 6.416-6.608 11.954-6.088 20.079-10.733 0 0-.33 11.379-7.508 19.187zM488.38 259.984c-10.605-.225-19.13-3.746-19.042-7.867.087-4.121 7.242-7.63 17.075-7.15 9.2.446 12.47 4.937 21.325 7.962 0 0-8.754 7.28-19.358 7.055zM491.8 293.275c-10.566-.941-19.425 1.625-19.791 5.73-.367 4.108 6.362 8.379 16.187 8.983 9.196.566 12.938-3.542 22.071-5.575 0 0-7.9-8.196-18.467-9.138zM307.467 54.4c.2 10.608-2.98 19.267-7.1 19.346-4.12.075-7.913-6.933-7.83-16.775.08-9.213 4.438-12.658 7.105-21.63 0 0 7.625 8.455 7.825 19.06zM438.667 127.492c-9.783 7.208-15.446 16.133-12.646 19.933 2.8 3.804 11.817 2.367 20.713-4.567 8.325-6.487 8.42-12.854 14.72-21.529 0 0-13-1.041-22.787 6.163zM352.396 63.583c-3.517 8.992-3.533 17.388-.042 18.75 3.492 1.367 8.942-3.42 11.975-11.85 2.838-7.887.205-12.204.759-20.704 0 0-9.175 4.817-12.692 13.804zM471.046 184.717c-11.458 4.05-19.47 10.946-17.896 15.396 1.575 4.454 10.621 5.7 21.15 1.65 9.846-3.792 11.792-9.855 20.342-16.325 0 0-12.142-4.775-23.596-.721zM452.171 185.504c-18.775 11.138-37.05 13.959-41.837 6.959-4.325-6.334-3.413-18.95 13.141-29.009 13.592-8.266 33.621-2.787 54.863-11.325 0 0-7.388 22.238-26.167 33.375zM460.425 337.988c-21.15-5.4-33.437-15.746-34.5-24.663-.387-3.25 3.425-11.325 28.4-7.716 19.421 2.804 26.146 14.262 48.205 27.279 0 0-20.95 10.504-42.105 5.1zM320.096 243.784c-8.758 6.333-15.742 4.437-17.958 2.216-4.234-4.229 2.154-15.454 13.016-26.233 10.867-10.775 27.259-11.871 27.259-11.871-11.225 11.225-8.554 25.938-22.317 35.888zM315.1 329.142c-11.237-9.417-12.112-15.246-8.07-19.258 4.045-4.013 15.695 1.17 26.02 11.579 10.325 10.408 11.371 26.112 11.371 26.112-15.375-10.662-21.104-11.546-29.32-18.433zM137.392 292.392c20.854-2.738 27.612-7.533 27.612-18.963 0-11.425-23.841-20.691-53.254-20.691-29.412 0-53.254 20.691-53.254 20.691 38.637 7.08 49.737 22.796 78.896 18.963zM186.721 154.521c12.57 12.054 21.77 30.417 13.908 40.846-6.879 9.129-31.533-1.559-52.762-21.913-21.234-20.354-24.125-51.791-24.125-51.791 25.487 15.558 45.937 16.525 62.979 32.858zM213.317 173.446c8.354 20.17 21.275 29.792 29.317 26.15 8.716-3.946 7.075-22.504 1.97-32.638-8.85-17.554-22.487-15.208-32.225-40.404 0 0-7.416 26.721.938 46.892zM169.688 334.063c26.037-9.904 33.962-22.175 29.383-29.317-3.246-5.067-16.313-7.887-30.933-1.43-21.809 9.638-19.088 16.118-42.109 31.68 0 0 23.254 6.83 43.659-.933zM156.675 242.209c20.171 8.358 39.154 8.779 42.4.941 3.246-7.837-3.32-17.454-18.533-23.3-11.388-4.375-30.909-1.279-54.509-6.962 0 0 10.475 20.966 30.642 29.32zM165.004 121.538c8.813 11.5 22.392 17.412 28.546 14.345 7.592-3.783 4.421-23.012-6.517-41.904-10.941-18.896-33.1-26.512-33.1-26.512 5.171 21.037 0 39.62 11.071 54.07zM93.875 214.33c21.82-.73 29.617 11.066 27.858 19.362-1.762 8.3-20.504 11.35-41.858 6.817-21.358-4.53-35.48-23.23-35.48-23.23 23.018-.566 26.618-2.183 49.48-2.95zM240.238 78.542c3.416 21.562-.609 40.116-8.984 41.446-8.379 1.325-18.1-11.888-20.72-31.98-2.455-18.8 5.454-27.062 8.345-46.108 0 0 17.942 15.075 21.359 36.642zM92.917 187.275c18.775 11.138 37.046 13.959 41.833 6.954 4.33-6.329 3.413-18.946-13.137-29.008-13.596-8.263-33.621-2.783-54.863-11.32 0 0 7.388 22.237 26.167 33.374zM84.658 337.988c21.155-5.4 33.442-15.746 34.505-24.663.383-3.25-3.425-11.325-28.405-7.716-19.416 2.804-26.141 14.262-48.2 27.279 0 0 20.95 10.504 42.1 5.1zM241.867 228.959c5.975 8.537 4.037 15.241 1.867 17.345-4.142 4.017-14.867-2.304-25.096-12.941-10.23-10.634-11.038-26.454-11.038-26.454 10.654 10.991 24.875 8.633 34.267 22.05zM232.188 328.888c11.4-9.554 12.287-15.467 8.187-19.538-4.104-4.07-15.92 1.192-26.396 11.75-10.47 10.559-11.537 26.484-11.537 26.484 15.6-10.817 21.412-11.713 29.746-18.696zM138.03 97c7.287 7.708 10.762 16.254 7.766 19.083-2.996 2.83-10.517.196-17.08-7.137-6.14-6.867-5.237-12.35-9.3-20.78 0 0 11.33 1.126 18.613 8.834zM58.475 259.984c10.604-.225 19.133-3.746 19.046-7.867-.088-4.121-7.246-7.63-17.08-7.15-9.195.446-12.466 4.937-21.324 7.962 0 0 8.754 7.28 19.358 7.055zM55.975 302.921c10.6-.35 19.088-3.97 18.95-8.092-.137-4.116-7.333-7.541-17.158-6.95-9.196.555-12.413 5.088-21.234 8.217 0 0 8.842 7.175 19.442 6.825zM257.846 54.4c.204 10.608-2.975 19.267-7.096 19.346-4.12.075-7.912-6.933-7.829-16.775.075-9.213 4.438-12.658 7.104-21.63 0 0 7.621 8.455 7.821 19.06zM106.42 131.033c9.784 7.205 15.447 16.13 12.647 19.934-2.8 3.8-11.821 2.366-20.713-4.567-8.325-6.487-8.425-12.854-14.725-21.533 0 0 13.004-1.042 22.792 6.166zM199.608 67c4.805 11.163 5.18 21.73.842 23.592-4.337 1.866-11.396-3.93-15.567-14.409-3.904-9.804-.77-15.345-1.82-26.02 0 0 11.745 5.675 16.545 16.837zM70.942 187.9c11.958 2.171 20.966 7.696 20.125 12.342-.846 4.65-9.575 7.325-20.613 5.008-10.329-2.17-13.216-7.846-22.691-12.867 0 0 11.22-6.654 23.179-4.483z" style="fill:rgb(140,184,191);fill-rule:nonzero"/>
  <path d="M345.088 261.596c-24.642 7.342-49.33 15.53-63.896 14.833-.713-21.7-1.213-38.916-1.583-48.916-1.155-30.83-3.484-31.75-6.184-31.75-2.696 0-5.025.92-6.179 31.75-.417 11.2-.996 31.446-1.85 56.912a3.737 3.737 0 00-.72-.187c-11.622-1.534-34.472-6.838-62.88-17.275-15.133-5.559-21.892-.48-11.963 5.237 22.413 12.904 74.838 27.384 74.346 42.396-.025.77.013 1.27.088 1.575-1.571 41.75-3.825 91.296-7.113 137.254H289.7c-3.679-51.425-6.062-107.341-7.646-151.796-.504-13.766 45.067-19.995 67.163-30.837 24.258-11.904 8.85-13.063-4.13-9.196z" style="fill:rgb(0,53,78);fill-rule:nonzero"/>
  <path d="M273.425 0C122.658 0 0 122.663 0 273.43 0 424.2 122.658 546.858 273.425 546.858c150.775 0 273.434-122.659 273.434-273.43C546.859 122.663 424.2 0 273.425 0zm0 19.467c140.263 0 253.967 113.704 253.967 253.962 0 140.263-113.704 253.963-253.967 253.963-140.258 0-253.962-113.7-253.962-253.963 0-140.258 113.704-253.962 253.962-253.962z" style="fill:rgb(0,53,78);fill-rule:nonzero"/>
  <path d="M273.425 443.309s-84.392-2.109-178.317 18.587c-.604-.566 27.875 23.104 21.092 17.934 89.342-24.463 157.225-21.392 157.225-21.392s67.888-3.071 157.23 21.392c-6.78 5.17 22.362-19.134 21.095-17.934-93.929-20.696-178.325-18.587-178.325-18.587z" style="fill:rgb(0,53,78);fill-rule:nonzero"/>
</svg>